<svg viewBox="0 0 183 183" height="183" width="183" xmlns="http://www.w3.org/2000/svg">
  <path d="M161.846108,62.7885904 C157.506983,65.6169573 149.507525,68.1993185 146.005067,70.482559 C143.942261,71.8272039 141.112336,74.2558115 142.846178,76.9416069 C144.718421,79.8426573 154.544916,78.7244495 156.283626,81.4186314 C157.087606,82.6626376 156.242593,84.0806649 155.218145,84.7487941 C149.647317,88.380174 133.519736,85.0835576 126.509952,89.6528342 C125.276163,90.4565461 122.590899,93.0864311 123.796869,94.954537 C125.528624,97.6382358 135.597843,97.8318255 138.139142,101.767917 C138.808893,102.805754 138.986937,104.453712 137.753844,105.258123 C134.061518,107.664367 122.83571,101.161988 115.818275,105.736157 C113.134402,107.485453 109.883014,111.075599 107.820208,112.420244 C106.172606,113.494423 104.881787,112.861237 104.481189,112.240632 C101.676301,107.895696 112.347809,100.354782 105.484772,87.4681357 C104.493707,85.4665437 102.972684,81.7631792 105.249699,80.2787584 C108.95802,77.8613328 113.422332,91.1246753 117.545162,88.4374821 C127.015569,82.2642761 118.075816,61.6123756 121.578274,59.3298339 C122.407291,58.7889009 123.794782,58.7637412 125.40135,61.2538502 C126.871604,63.5308009 127.39113,65.2542386 129.123581,67.9379374 C130.864378,70.634216 132.690024,72.0913805 135.16247,70.4797635 C140.732602,66.8483837 137.257963,50.5791589 142.004642,47.4859165 C143.037436,46.8128952 144.46457,46.7681669 145.13293,47.8039069 C146.738107,50.2905215 145.55022,57.5239283 147.023951,59.80647 C150.234306,64.7803981 161.894792,53.3488199 164.569624,57.4917798 C165.772116,59.3542947 164.324118,61.173479 161.846108,62.7885904 M68.9295156,130.353333 C68.7949192,130.858162 68.0704337,131.564366 66.7402645,131.203278 C65.0749779,130.751224 62.1337727,129.051334 59.9671833,128.462484 C54.3017751,126.925083 48.2099163,133.742003 45.2295682,132.933027 C44.2338298,132.662906 43.9982862,131.517147 44.221469,130.674146 C45.0709368,127.476436 51.7471911,125.14742 52.3260928,122.967006 C52.7291952,121.449743 50.3723854,120.270653 49.3759603,120.000531 C43.718106,118.46452 33.6652685,124.199565 29.1686512,122.978116 C28.3411583,122.753825 27.4731491,121.986514 27.7416551,120.975468 C28.3233037,118.786721 35.1190466,117.391673 35.744645,115.034881 C36.3242334,112.853078 33.9138597,111.839949 32.2485731,111.388589 C29.4213628,110.620583 23.5293383,110.634471 20.0263993,109.683144 C18.0259952,109.140124 16.6683574,108.235321 17.070773,106.72153 C17.9641907,103.355776 28.2010682,108.483916 29.2737188,104.4439 C29.766781,102.589159 27.4188985,97.9922343 27.9552238,95.9715318 C28.1790933,95.1306141 29.1411826,94.8486879 29.9741693,95.0750621 C33.8060453,96.1152725 34.9851369,107.797155 39.4824409,109.017909 C41.478038,109.560235 42.3831299,108.182547 42.9647784,105.992411 C43.5436801,103.812691 43.5203318,102.54194 44.0113338,100.69206 C44.5483458,98.6692738 45.4795329,98.3838756 46.1490811,98.5651139 C48.9756048,99.3331197 47.4504082,115.150845 55.0963057,117.226406 C58.4248188,118.130514 58.5518613,108.250598 61.5459437,109.063045 C63.383596,109.562318 63.1652203,112.380886 62.9344837,113.941202 C61.1256734,124.091933 69.8661964,126.823701 68.9295156,130.353333 M160.539957,15.1237072 C160.009442,14.3014636 158.891768,13.2569921 158.131224,14.7695313 C157.533013,15.9584511 157.599328,23.1871109 143.671924,32.2699854 C136.505134,36.9430233 128.756021,39.3625306 118.307359,46.1765963 C93.7903752,62.1645111 93.9527073,86.3318048 92.8529936,118.014571 C92.7714821,120.356299 89.9441404,124.051534 89.0426791,126.260619 C87.8055012,129.291253 86.4128989,133.079546 85.4831159,137.038676 C85.3781181,137.487299 85.2793373,137.938699 85.1867734,138.391489 C84.6362258,137.685915 84.0946583,137.022009 83.5855571,136.417132 C82.4955143,135.122654 79.7814596,133.247605 79.2164057,131.682982 C71.5791981,110.517155 66.4301617,94.1514522 46.384564,88.7408951 C37.8417505,86.4345853 32.0786152,86.5040315 26.2194623,84.922046 C14.8327283,81.8490496 13.3040434,76.9496169 12.6415903,76.2780717 C11.7988449,75.4231884 11.270402,76.374602 11.0908005,77.0475362 C6.91161222,92.6951644 5.55078561,130.728096 41.5152916,140.436681 C60.7630442,145.632649 70.9464482,140.449876 75.4661886,141.670046 C78.2831688,142.430483 81.5367187,144.484008 84.1333416,147.135466 C83.9495955,149.041765 83.8846627,150.95362 83.9371616,152.855059 C84.0545933,157.041973 83.303721,163.869233 86.1524768,167.357518 C88.6924562,170.468016 95.5746468,168.967977 95.3149154,164.48036 C95.2147531,162.742815 94.2331619,161.151107 93.7758689,159.492036 C93.3434438,157.924635 92.9455574,156.355844 92.6754644,154.749552 C92.1532386,151.646694 92.0061035,148.461195 92.4274762,145.336808 C93.2971619,138.895669 96.7468919,133.303162 102.184672,129.757237 C107.712944,126.152282 123.590406,128.654431 147.131324,113.301949 C191.119181,84.6164825 172.88894,34.2630927 160.539957,15.1237072" fill-rule="evenodd" fill="#005eff"></path>
</svg>
